<svg
 xmlns="http://www.w3.org/2000/svg"
 xmlns:xlink="http://www.w3.org/1999/xlink"
 width="20px" height="16px" viewBox="0 0 20 16">
<path fill-rule="evenodd"  fill="currentColor"
 d="M13.999,1.527 C13.478,1.767 12.922,1.925 12.353,1.995 C12.955,1.621 13.403,1.038 13.615,0.352 C13.053,0.697 12.435,0.942 11.792,1.073 C11.251,0.475 10.489,0.136 9.691,0.137 C8.925,0.142 8.191,0.458 7.653,1.014 C7.114,1.570 6.814,2.323 6.819,3.105 C6.819,3.333 6.844,3.560 6.893,3.782 C4.576,3.659 2.421,2.530 0.973,0.681 C0.211,2.035 0.597,3.761 1.862,4.643 C1.405,4.628 0.959,4.501 0.561,4.272 L0.561,4.310 C0.555,5.715 1.518,6.931 2.867,7.220 C2.443,7.339 2.000,7.357 1.570,7.272 C1.938,8.474 3.018,9.303 4.252,9.333 C3.239,10.156 1.982,10.604 0.686,10.603 C0.460,10.681 0.214,10.666 0.000,10.561 C1.309,11.434 2.838,11.898 4.401,11.897 C6.587,11.897 8.681,11.004 10.217,9.418 C11.752,7.831 12.601,5.683 12.574,3.453 C12.574,3.324 12.574,3.196 12.565,3.068 C13.129,2.646 13.615,2.124 13.999,1.527 Z"/>
</svg>
