<svg
 xmlns="http://www.w3.org/2000/svg"
 xmlns:xlink="http://www.w3.org/1999/xlink"
 width="28px" height="16px" viewBox="0 0 28 16">
<path fill-rule="evenodd"  fill="currentColor"
 d="M19.462,8.411 L19.462,9.939 L18.143,9.939 L18.143,8.411 L16.605,8.411 L16.605,7.102 L18.143,7.102 L18.143,5.575 L19.462,5.575 L19.462,7.102 L21.000,7.102 L21.000,8.411 L19.462,8.411 ZM8.058,15.995 C3.608,15.995 -0.000,12.413 -0.000,7.995 C-0.000,3.577 3.608,-0.005 8.058,-0.005 C10.254,-0.005 12.244,0.867 13.697,2.281 L11.877,4.245 C10.903,3.268 9.552,2.662 8.058,2.662 C5.091,2.662 2.686,5.049 2.686,7.995 C2.686,10.941 5.091,13.328 8.058,13.328 C10.464,13.328 12.499,11.759 13.184,9.595 L8.595,9.595 L8.595,7.106 L16.116,7.106 L16.116,7.106 L16.116,9.595 C15.370,13.247 11.956,15.995 8.058,15.995 Z"/>
</svg>