<svg xmlns="http://www.w3.org/2000/svg" width="20" height="16"><path fill-rule="evenodd" fill="currentColor" d="M13.999 1.527a5.559 5.559 0 0 1-1.646.468A2.959 2.959 0 0 0 13.615.352c-.562.345-1.18.59-1.823.721A2.828 2.828 0 0 0 9.691.137c-.766.005-1.5.321-2.038.877a2.978 2.978 0 0 0-.834 2.091c0 .228.025.455.074.677A8.067 8.067 0 0 1 .973.681c-.762 1.354-.376 3.08.889 3.962a2.79 2.79 0 0 1-1.301-.371v.038c-.006 1.405.957 2.621 2.306 2.91a2.79 2.79 0 0 1-1.297.052 2.89 2.89 0 0 0 2.682 2.061 5.646 5.646 0 0 1-3.566 1.27.893.893 0 0 1-.686-.042 7.918 7.918 0 0 0 4.401 1.336c2.186 0 4.28-.893 5.816-2.479a8.435 8.435 0 0 0 2.357-5.965c0-.129 0-.257-.009-.385a5.932 5.932 0 0 0 1.434-1.541z"/></svg>