<svg xmlns="http://www.w3.org/2000/svg"><symbol id="arrow-left"><path fill-rule="evenodd" fill="currentColor" d="M1 6V4.999h41V6H1z"/><path fill-rule="evenodd" fill="currentColor" d="M5.002 10.998L1.213 5.5 5.002.001H3.788L-.002 5.5l3.79 5.498h1.214z"/><path fill-rule="evenodd" fill="currentColor" d="M5.002 10.998L1.213 5.5 5.002.001H3.788L-.002 5.5l3.79 5.498h1.214z"/></symbol><symbol id="arrow-right"><path fill-rule="evenodd" fill="currentColor" d="M41 6V4.999H0V6h41z"/><path fill-rule="evenodd" fill="currentColor" d="M36.998 10.998L40.787 5.5 36.998.001h1.214l3.79 5.499-3.79 5.498h-1.214z"/><path fill-rule="evenodd" fill="currentColor" d="M36.998 10.998L40.787 5.5 36.998.001h1.214l3.79 5.499-3.79 5.498h-1.214z"/></symbol><symbol id="icon-facebook"><path fill-rule="evenodd" fill="currentColor" d="M5.188 14.989V8.151h2.356l.352-2.666H5.188V3.784c0-.771.22-1.297 1.356-1.297l1.448-.001V.103a19.748 19.748 0 0 0-2.111-.105c-2.089 0-3.518 1.242-3.518 3.523v1.964H.001v2.666h2.362v6.838h2.825z"/></symbol><symbol id="icon-google"><path fill-rule="evenodd" fill="currentColor" d="M19.462 8.411v1.528h-1.319V8.411h-1.538V7.102h1.538V5.575h1.319v1.527H21v1.309h-1.538zM8.058 15.995c-4.45 0-8.058-3.582-8.058-8s3.608-8 8.058-8a8.06 8.06 0 0 1 5.639 2.286l-1.82 1.964a5.376 5.376 0 0 0-3.819-1.583c-2.967 0-5.372 2.387-5.372 5.333s2.405 5.333 5.372 5.333a5.37 5.37 0 0 0 5.126-3.733H8.595V7.106h7.521v2.489c-.746 3.652-4.16 6.4-8.058 6.4z"/></symbol><symbol id="icon-twitter"><path fill-rule="evenodd" fill="currentColor" d="M13.999 1.527a5.559 5.559 0 0 1-1.646.468A2.959 2.959 0 0 0 13.615.352c-.562.345-1.18.59-1.823.721A2.828 2.828 0 0 0 9.691.137c-.766.005-1.5.321-2.038.877a2.978 2.978 0 0 0-.834 2.091c0 .228.025.455.074.677A8.067 8.067 0 0 1 .973.681c-.762 1.354-.376 3.08.889 3.962a2.79 2.79 0 0 1-1.301-.371v.038c-.006 1.405.957 2.621 2.306 2.91a2.79 2.79 0 0 1-1.297.052 2.89 2.89 0 0 0 2.682 2.061 5.646 5.646 0 0 1-3.566 1.27.893.893 0 0 1-.686-.042 7.918 7.918 0 0 0 4.401 1.336c2.186 0 4.28-.893 5.816-2.479a8.435 8.435 0 0 0 2.357-5.965c0-.129 0-.257-.009-.385a5.932 5.932 0 0 0 1.434-1.541z"/></symbol></svg>